HIERARCHY
ROOT Hips
{
	OFFSET 0.00000 0.00000 0.00000
	CHANNELS 6 Xposition Yposition Zposition Zrotation Yrotation Xrotation 
	JOINT LHipJoint
	{
		OFFSET 0 0 0
		CHANNELS 3 Zrotation Yrotation Xrotation
		JOINT LeftHip
		{
			OFFSET 1.58161 -1.81893 0.78828
			CHANNELS 3 Zrotation Yrotation Xrotation
			JOINT LeftKnee
			{
				OFFSET 2.53374 -6.96141 0.00000
				CHANNELS 3 Zrotation Yrotation Xrotation
				JOINT LeftAnkle
				{
					OFFSET 2.63509 -7.23986 0.00000
					CHANNELS 3 Zrotation Yrotation Xrotation
					JOINT LeftToe
					{
						OFFSET 0.14115 -0.38781 2.05350
						CHANNELS 3 Zrotation Yrotation Xrotation
						End Site
						{
							OFFSET 0.00000 -0.00000 1.05543
						}
					}
				}
			}
		}
	}
	JOINT RHipJoint
	{
		OFFSET 0 0 0
		CHANNELS 3 Zrotation Yrotation Xrotation
		JOINT RightHip
		{
			OFFSET -1.11138 -1.81893 0.78828
			CHANNELS 3 Zrotation Yrotation Xrotation
			JOINT RightKnee
			{
				OFFSET -2.58392 -7.09926 0.00000
				CHANNELS 3 Zrotation Yrotation Xrotation
				JOINT RightAnkle
				{
					OFFSET -2.66423 -7.31992 0.00000
					CHANNELS 3 Zrotation Yrotation Xrotation
					JOINT RightToe
					{
						OFFSET -0.18831 -0.51739 2.12114
						CHANNELS 3 Zrotation Yrotation Xrotation
						End Site
						{
							OFFSET -0.00000 -0.00000 1.09845
						}
					}
				}
			}
		}
	}
	JOINT lowerback
	{
		OFFSET 0 0 0
		CHANNELS 3 Zrotation Yrotation Xrotation
		JOINT Chest
		{
			OFFSET -0.01511 1.97958 -0.08829
			CHANNELS 3 Zrotation Yrotation Xrotation
			JOINT Chest2
			{
				OFFSET 0.08344 1.97334 -0.04330
				CHANNELS 3 Zrotation Yrotation Xrotation
				JOINT lowerneck
				{
					OFFSET 0 0 0
					CHANNELS 3 Zrotation Yrotation Xrotation
					JOINT Neck
					{
						OFFSET 0.00559 1.76246 0.31246
						CHANNELS 3 Zrotation Yrotation Xrotation
						JOINT Head
						{
							OFFSET -0.07011 1.80354 -0.30524
							CHANNELS 3 Zrotation Yrotation Xrotation
							End Site
							{
								OFFSET -0.02385 1.83547 -0.13906
							}
						}
					}
				}
				JOINT LeftCollar
				{
					OFFSET 0 0 0
					CHANNELS 3 Zrotation Yrotation Xrotation
					JOINT LeftShoulder
					{
						OFFSET 3.20667 1.30156 -0.60240
CHANNELS 3 Zrotation Xrotation Yrotation
						JOINT LeftElbow
						{
OFFSET 0 -4.956630 0.000000
CHANNELS 3 Zrotation Xrotation Yrotation
							JOINT LeftWrist
							{
OFFSET 0 -3.381770 0.000000
CHANNELS 3 Zrotation Xrotation Yrotation
								JOINT lhand
								{
									OFFSET 0 0 0
CHANNELS 3 Zrotation Xrotation Yrotation
									JOINT LFingers
									{
OFFSET 0 -0.662910 0.000000
CHANNELS 3 Zrotation Xrotation Yrotation
										End Site
										{
OFFSET 0 -0.534450 0.000000
										}
									}
								}
								JOINT LThumb
								{
OFFSET 0 0.000000 0.000000
CHANNELS 3 Zrotation Xrotation Yrotation
									End Site
									{
OFFSET 0 -0.542610 0.542610
									}
								}
							}
						}
					}
				}
				JOINT RightCollar
				{
					OFFSET 0 0 0
					CHANNELS 3 Zrotation Yrotation Xrotation
					JOINT RightShoulder
					{
						OFFSET -3.06877 1.34672 -0.60964
CHANNELS 3 Zrotation Xrotation Yrotation
						JOINT RightElbow
						{
OFFSET 0 -5.083650 0.000000
CHANNELS 3 Zrotation Xrotation Yrotation
							JOINT RightWrist
							{
OFFSET 0 -3.359840 0.000000
CHANNELS 3 Zrotation Xrotation Yrotation
								JOINT rhand
								{
									OFFSET 0 0 0
CHANNELS 3 Zrotation Xrotation Yrotation
									JOINT RFingers
									{
OFFSET 0 -0.820760 0.000000
CHANNELS 3 Zrotation Xrotation Yrotation
										End Site
										{
OFFSET 0 -0.661720 0.000000
										}
									}
								}
								JOINT RThumb
								{
OFFSET 0 0.000000 0.000000
CHANNELS 3 Zrotation Xrotation Yrotation
									End Site
									{
OFFSET 0 -0.671820 0.671820
									}
								}
							}
						}
					}
				}
			}
		}
	}
}
MOTION
Frames: 13
Frame Time: .0083333
1.7040 13.6611 -4.3405 -4.3607 -4.5538 19.1355 0.0000 0.0000 0.0000 -5.1418 -9.1768 -82.1071 20.3111 19.9977 90.9095 1.2937 -12.9344 -20.9625 0.0737 -1.7514 -4.8190 0.0000 0.0000 0.0000 26.1416 -14.7156 -79.5500 -25.4101 -19.2833 106.0018 -1.9292 5.5166 -25.0936 -0.3149 3.6071 -9.9738 -0.6978 7.4441 33.6856 6.0853 9.0469 15.6779 3.9074 4.0440 -0.9674 -3.4360 -4.1044 -15.3366 -9.3131 -2.2702 24.2438 -3.0153 -2.3624 10.2601 0.0000 0.0000 0.0000 7.7838 -13.3912 -63.3677 95.6103 -59.8807 64.8567 29.6472 9.4938 -11.0842 0.0 0.0 0.0 -7.1250 0.0 0.0 2.2995 42.6714 0.1322 0.0000 0.0000 0.0000 -21.2433 -60.4686 22.1389 -13.9181 -22.6175 -2.7965 -40.7395 -32.3743 -20.2495 0.0 0.0 0.0 7.1250 0.0 -0.0 -7.6367 4.2158 -7.1194
1.7217 13.5606 -4.3313 -4.2948 -4.5274 19.1119 0.0000 0.0000 0.0000 -5.0720 -9.3278 -82.7280 20.6950 19.9884 92.0325 1.3463 -12.7592 -21.3021 0.1187 -2.2213 -6.1176 0.0000 0.0000 0.0000 26.0299 -15.2229 -80.2507 -25.7840 -19.1782 107.1370 -1.9576 6.0189 -25.2325 -0.3324 3.7051 -10.2484 -0.7976 7.4134 33.9229 6.3253 8.9754 15.9023 4.2254 3.9865 -0.8588 -4.0620 -4.1497 -15.6557 -9.1467 -2.1752 24.3467 -2.8551 -2.3657 10.3841 0.0000 -0.0000 0.0000 7.6923 -13.3671 -63.1242 96.7454 -59.8274 65.8383 30.0297 9.0186 -10.2445 0.0 0.0 0.0 -7.1250 0.0 0.0 2.6896 41.756 0.2154 0.0000 -0.0000 0.0000 -21.8819 -61.138 21.662 -13.8423 -22.5088 -2.7675 -40.8753 -32.7543 -20.3494 0.0 0.0 0.0 7.1250 0.0 -0.0 -7.6985 4.0531 -7.2016
1.7355 13.4592 -4.3228 -4.1752 -4.5105 19.0626 0.0000 0.0000 0.0000 -5.0887 -9.4248 -83.3386 21.0760 19.9722 93.1474 1.3994 -12.8999 -21.7036 0.1079 -2.1178 -5.8314 0.0000 0.0000 0.0000 25.8621 -15.7678 -80.9407 -26.1530 -19.0670 108.2633 -1.9872 6.4672 -25.3905 -0.3584 3.8459 -10.6436 -1.1240 7.3946 34.1981 6.6377 8.8678 15.9974 4.7319 3.8989 -0.9435 -4.8936 -4.1463 -15.6745 -8.9082 -1.9870 24.5360 -2.6166 -2.3337 10.4907 0.0000 0.0000 0.0000 7.3344 -12.9624 -62.7096 97.7942 -59.7692 66.7447 30.1459 8.9694 -9.9829 0.0 0.0 0.0 -7.1250 0.0 0.0 2.8055 41.4689 0.2446 0.0000 0.0000 0.0000 -22.3411 -61.5262 21.8209 -13.8404 -22.5061 -2.7667 -40.9691 -33.3658 -20.5066 0.0 0.0 0.0 7.1250 0.0 -0.0 -7.7226 3.8337 -7.2564
1.7443 13.3590 -4.3165 -4.1734 -4.4821 18.9863 0.0000 0.0000 0.0000 -4.9731 -9.4170 -83.9392 21.4553 19.9491 94.2586 1.4319 -13.2439 -21.9971 0.0737 -1.7518 -4.8202 0.0000 0.0000 0.0000 25.8344 -16.2279 -81.4966 -26.4941 -18.9573 109.3104 -2.0233 6.7624 -25.6066 -0.3570 3.8388 -10.6235 -0.3913 7.6617 34.8229 6.4036 9.3714 16.0637 3.9116 4.1832 -0.9802 -3.8405 -4.5580 -16.0143 -8.9807 -2.8053 24.5052 -2.9321 -2.6202 10.4827 0.0000 -0.0000 0.0000 8.3884 -13.599 -63.9118 98.6620 -59.7146 67.4943 30.4965 8.719 -9.7335 0.0 0.0 0.0 -7.1250 0.0 0.0 3.1291 41.2186 0.2922 0.0000 -0.0000 0.0000 -24.015 -61.7475 18.196 -13.7117 -22.321 -2.7176 -41.0118 -33.3546 -20.8352 0.0 0.0 0.0 7.1250 0.0 -0.0 -7.6797 3.4226 -7.2742
1.7536 13.2617 -4.3085 -4.1559 -4.4905 18.9224 0.0000 0.0000 0.0000 -4.9161 -9.3464 -84.5275 21.8227 19.9202 95.3359 1.4431 -13.4757 -22.1209 0.0686 -1.6894 -4.6480 0.0000 0.0000 0.0000 25.7731 -16.6855 -82.0328 -26.8206 -18.8460 110.3183 -2.0398 7.1853 -25.6861 -0.3535 3.8201 -10.5712 -0.1568 7.7703 35.2440 6.4221 9.5677 16.0370 3.7115 4.2843 -1.1350 -3.3702 -4.7020 -15.4123 -9.4274 -3.1080 23.9186 -3.1611 -2.7389 10.1193 -0.0000 0.0000 0.0000 8.9167 -13.4802 -64.3832 99.8374 -59.6312 68.5089 31.1984 8.6959 -9.4885 0.0 0.0 0.0 -7.1250 0.0 0.0 3.7641 41.007 0.3713 -0.0000 0.0000 0.0000 -24.8012 -61.9212 16.4347 -13.5499 -22.0875 -2.6565 -40.9896 -33.1551 -20.9942 0.0 0.0 0.0 7.1250 0.0 -0.0 -7.6329 3.2374 -7.2554
1.7677 13.1667 -4.2934 -4.0117 -4.6114 18.8370 0.0000 0.0000 0.0000 -5.0591 -9.2657 -85.0405 22.1838 19.8853 96.3969 1.4643 -13.6638 -22.3036 0.0548 -1.5111 -4.1563 0.0000 0.0000 0.0000 25.4748 -17.1885 -82.5640 -27.1555 -18.7253 111.3583 -2.0409 7.7305 -25.6659 -0.3728 3.9218 -10.8569 -0.0155 7.8977 35.6304 6.3766 9.7545 16.0346 3.5006 4.3786 -1.2488 -3.0815 -4.8650 -14.9423 -9.6073 -3.4274 23.5283 -3.2769 -2.8592 9.8620 -0.0000 -0.0000 0.0000 9.4379 -13.387 -64.8507 100.9954 -59.5382 69.5076 31.6842 8.8812 -9.6368 0.0 0.0 0.0 -7.1250 0.0 0.0 4.1958 41.2282 0.3911 -0.0000 -0.0000 0.0000 -25.5842 -62.0344 14.8221 -13.4687 -21.9702 -2.6261 -41.2029 -33.1866 -21.0773 0.0 0.0 0.0 7.1250 0.0 -0.0 -7.7434 3.0693 -7.3864
1.7840 13.0713 -4.2766 -3.9372 -4.7301 18.7800 0.0000 0.0000 0.0000 -5.1287 -9.1857 -85.6040 22.5499 19.8434 97.4742 1.4945 -13.8969 -22.5561 0.0314 -1.1444 -3.1462 0.0000 0.0000 0.0000 25.2019 -17.6286 -83.0650 -27.4822 -18.6011 112.3790 -2.0504 8.1652 -25.7129 -0.3957 4.0390 -11.1863 0.1964 8.0414 36.0197 6.3511 9.9846 16.0122 3.2581 4.4958 -1.3790 -3.1260 -5.1056 -14.7139 -9.2943 -3.8395 23.5223 -3.2000 -3.0102 9.8047 0.0000 -0.0000 0.0000 9.868 -13.3127 -65.3448 101.9961 -59.4492 70.3697 31.5964 9.2321 -9.884 0.0 0.0 0.0 -7.1250 0.0 0.0 4.1119 41.5059 0.3551 0.0000 -0.0000 0.0000 -26.4459 -62.0479 13.3369 -13.4285 -21.9119 -2.611 -41.6549 -33.8725 -21.2279 0.0 0.0 0.0 7.1250 0.0 -0.0 -7.9820 2.7411 -7.6669
1.7990 12.9750 -4.2630 -3.9665 -4.8095 18.7388 0.0000 0.0000 0.0000 -5.0642 -9.0907 -86.2116 22.9132 19.7953 98.5456 1.5444 -13.9239 -22.8940 0.0358 -1.2220 -3.3599 0.0000 0.0000 0.0000 25.0393 -17.9816 -83.5299 -27.7903 -18.4779 113.3481 -2.0654 8.5123 -25.8023 -0.4280 4.1986 -11.6362 0.4802 8.1129 36.3425 6.3334 10.1513 15.9919 3.0155 4.5853 -1.4693 -3.3484 -5.3252 -14.5752 -8.8293 -4.1918 23.7259 -3.0462 -3.1385 9.8539 -0.0000 -0.0000 0.0000 10.2281 -13.2066 -65.6764 102.6987 -59.3818 70.9746 31.8586 9.6149 -9.549 0.0 0.0 0.0 -7.1250 0.0 0.0 4.3537 41.1441 0.4149 -0.0000 -0.0000 0.0000 -27.0739 -62.1433 12.0456 -13.3998 -21.8702 -2.6003 -41.9066 -33.9413 -20.9738 0.0 0.0 0.0 7.1250 0.0 -0.0 -8.1872 2.9677 -7.8339
1.8133 12.8817 -4.2503 -3.9819 -4.9423 18.6717 0.0000 0.0000 0.0000 -5.0326 -8.9634 -86.7566 23.2641 19.7426 99.5832 1.6247 -13.6923 -23.3772 0.0687 -1.6914 -4.6534 0.0000 0.0000 0.0000 24.8044 -18.3150 -83.9779 -28.0999 -18.3481 114.3283 -2.0742 9.0196 -25.8548 -0.4249 4.1835 -11.5936 0.6931 8.1680 36.6325 6.2891 10.2741 15.9935 2.8008 4.6512 -1.5256 -3.2641 -5.4463 -14.2588 -8.8195 -4.4123 23.5808 -3.0639 -3.2210 9.7300 0.0000 -0.0000 0.0000 10.6158 -13.109 -65.9295 103.2218 -59.329 71.4246 32.85 10.1553 -8.9798 0.0 0.0 0.0 -7.1250 0.0 0.0 5.2429 40.5779 0.5735 0.0000 -0.0000 0.0000 -27.4644 -62.2036 11.0603 -13.4686 -21.97 -2.626 -41.9947 -33.5839 -20.5367 0.0 0.0 0.0 7.1250 0.0 -0.0 -8.3340 3.4723 -7.8993
1.8285 12.7882 -4.2370 -3.9758 -5.0416 18.6541 0.0000 0.0000 0.0000 -5.0284 -8.8742 -87.3940 23.6140 19.6839 100.6204 1.6801 -13.5122 -23.7058 0.0922 -1.9585 -5.3910 0.0000 0.0000 0.0000 24.5093 -18.6973 -84.5020 -28.4245 -18.2054 115.3632 -2.0632 9.7456 -25.7936 -0.3739 3.9276 -10.8731 0.9255 8.2127 36.8407 6.2409 10.3928 15.9870 2.5803 4.7179 -1.5590 -2.9437 -5.5382 -13.7902 -9.0699 -4.6150 23.1862 -3.1905 -3.2967 9.4743 0.0000 -0.0000 0.0000 11.0743 -13.0013 -66.2562 104.1346 -59.2315 72.2094 33.6829 10.7727 -8.8661 0.0 0.0 0.0 -7.1250 0.0 0.0 5.9838 40.5261 0.6628 0.0000 -0.0000 0.0000 -27.8788 -62.1818 10.0326 -13.5669 -22.1121 -2.6629 -42.1291 -33.4084 -20.3194 0.0 0.0 0.0 7.1250 0.0 -0.0 -8.4613 3.6948 -7.9876
1.8438 12.6927 -4.2243 -3.9411 -5.0937 18.6102 0.0000 0.0000 0.0000 -5.0437 -8.8180 -88.0147 23.9624 19.6193 101.6564 1.6960 -13.5880 -23.8223 0.0776 -1.7974 -4.9461 0.0000 0.0000 0.0000 24.2167 -19.1845 -85.0355 -28.7492 -18.0556 116.4067 -2.0353 10.4310 -25.6415 -0.3564 3.8352 -10.6135 1.1715 8.2260 37.0909 6.1972 10.4820 15.9578 2.3627 4.7703 -1.6267 -2.7395 -5.6306 -13.3165 -9.1731 -4.8158 22.8839 -3.2491 -3.3673 9.2592 0.0000 -0.0000 0.0000 11.4972 -12.8536 -66.5758 105.1370 -59.1163 73.0701 34.1338 11.4991 -9.109 0.0 0.0 0.0 -7.1250 0.0 0.0 6.3906 40.86 0.6555 0.0000 -0.0000 0.0000 -28.3101 -62.1743 9.0205 -13.6055 -22.1679 -2.6774 -42.2789 -33.2749 -20.2707 0.0 0.0 0.0 7.1250 0.0 -0.0 -8.5619 3.7061 -8.0829
1.8579 12.5952 -4.2112 -3.8670 -5.1664 18.5137 0.0000 0.0000 0.0000 -5.0982 -8.7447 -88.5333 24.3042 19.5499 102.6759 1.6953 -13.8640 -23.8671 0.0461 -1.3850 -3.8088 0.0000 0.0000 0.0000 23.9254 -19.7043 -85.5323 -29.0577 -17.9067 117.4060 -2.0082 10.8526 -25.4935 -0.3855 3.9874 -11.0413 1.3469 8.2984 37.4410 6.1850 10.6256 15.9061 2.1826 4.8418 -1.7692 -2.4653 -5.7527 -12.7113 -9.3593 -5.0743 22.3870 -3.3383 -3.4620 8.9453 -0.0000 0.0000 0.0000 11.8473 -12.772 -67.0092 105.7562 -59.0409 73.6013 34.622 12.1911 -9.1901 0.0 0.0 0.0 -7.1250 0.0 0.0 6.8300 41.0075 0.6761 -0.0000 0.0000 0.0000 -28.9269 -62.1021 8.0017 -13.5823 -22.1344 -2.6687 -42.6409 -33.6232 -20.4073 0.0 0.0 0.0 7.1250 0.0 -0.0 -8.7496 3.4199 -8.3112
1.8718 12.4954 -4.1984 -3.8510 -5.2041 18.4576 0.0000 0.0000 0.0000 -5.0710 -8.6707 -89.1600 24.6521 19.4730 103.7177 1.6783 -14.0767 -23.7981 0.0274 -1.0687 -2.9379 0.0000 0.0000 0.0000 23.7100 -20.1677 -86.0303 -29.3530 -17.7580 118.3703 -2.0001 11.1902 -25.4655 -0.4243 4.1805 -11.5850 1.5672 8.3748 37.7761 6.1941 10.7906 15.8562 1.9962 4.9242 -1.9009 -2.1798 -5.8809 -12.3305 -9.5246 -5.3291 21.9702 -3.4324 -3.5585 8.7025 -0.0000 -0.0000 0.0000 12.1856 -12.7426 -67.402 106.2308 -58.9808 74.0081 35.4486 12.6088 -8.7494 0.0 0.0 0.0 -7.1250 0.0 0.0 7.5555 40.5641 0.8318 -0.0000 -0.0000 0.0000 -29.6619 -62.065 6.8114 -13.4957 -22.0092 -2.6361 -43.0585 -33.9369 -20.5856 0.0 0.0 0.0 7.1250 0.0 -0.0 -8.9602 3.0608 -8.5761
